<svg xmlns="http://www.w3.org/2000/svg" enable-background="new 0 0 24 24" viewBox="0 0 24 24"><path fill="#FF7A55" d="M14.84,19.915L14.84,19.915c-0.551-0.005-2.133-1.753-2.258-2.054c-0.078-0.188-0.038-0.471,0.106-0.614c0.126-0.126,0.27-0.179,0.685-0.208c0.005-1.102,0.024-2.536,0.039-3.342h-2.807c-0.002,0.614,0.003,1.657,0.065,2.891c0.027,0.476-0.264,0.803-0.767,0.803c-0.002,0-0.004,0-0.007,0l-1.437-0.004c-1.023,0-0.718-1.102-0.761-1.202c0.046-1.568,0.114-3.923-0.012-9.227C7.26,6.925,7.127,6.868,7.01,6.75C6.867,6.608,6.826,6.331,6.903,6.145C7.036,5.821,8.66,4.083,9.187,4.083c0.521,0,2.14,1.737,2.273,2.06c0.077,0.188,0.036,0.466-0.107,0.609c-0.116,0.115-0.247,0.172-0.673,0.206c-0.059,0.901-0.071,2.219-0.081,3.302c-0.003,0.289-0.006,0.563-0.009,0.811h2.796c0.001-0.631-0.006-1.793-0.059-3.405c-0.014-0.477,0.293-0.755,0.692-0.76c0.529-0.004,1.058-0.005,1.584-0.003c0.412,0.002,0.719,0.277,0.711,0.761c-0.13,6.719-0.082,8.041-0.051,8.916c0.006,0.158,0.011,0.303,0.015,0.461c0.474,0.036,0.578,0.092,0.692,0.203c0.146,0.143,0.188,0.426,0.108,0.615c-0.124,0.299-1.689,2.045-2.234,2.057l0,0C14.845,19.915,14.842,19.915,14.84,19.915z M9.369,5.043L9.369,5.043L9.369,5.043z"/><path fill="#110638" d="M11.999,24c-1.499,0-9.696-4.71-10.441-6C0.813,16.715,0.813,7.295,1.557,6.001C2.297,4.711,10.495,0,11.999,0c1.491,0,9.688,4.708,10.441,5.998c0.752,1.287,0.753,10.71,0.001,12.004C21.691,19.291,13.494,24,11.999,24z M11.999,1c-1.14,0-9.015,4.522-9.575,5.499c-0.563,0.98-0.564,10.027-0.001,11c0.564,0.977,8.44,5.5,9.576,5.5c1.133,0,9.01-4.524,9.577-5.501c0.569-0.979,0.57-10.022,0.001-10.996C21.006,5.525,13.129,1,11.999,1z"/></svg>